<svg width="114" height="42" viewBox="0 0 114 42" fill="none" xmlns="http://www.w3.org/2000/svg">
<path d="M38.6476 7.85779V28.9082L41.3564 28.9289V18.8999H47.8907V16.2531H41.3564V10.5046H49.8552V7.85779H38.6476ZM54.7352 12.1382C55.7071 12.1382 56.5135 11.3524 56.5135 10.3598C56.5135 9.3673 55.7278 8.58152 54.7352 8.58152C53.7633 8.58152 52.9569 9.3673 52.9569 10.3598C52.9569 11.3524 53.7427 12.1382 54.7352 12.1382ZM53.3498 14.785V28.9289H56.0586V14.785H53.3498ZM66.1082 14.3714C62.5102 14.3714 60.0081 17.4111 60.0081 21.0298C60.0081 24.6485 62.5102 27.6882 66.1082 27.6882C67.7625 27.6882 69.1066 27.0678 70.0991 26.0132V27.8949C70.1198 30.2316 68.2587 32.1753 65.9014 32.196C65.8808 32.196 65.8808 32.196 65.8601 32.196C64.9916 32.196 64.1438 31.8652 63.4614 31.3896L62.0966 33.7469C65.3224 35.8354 69.6235 34.9049 71.6913 31.6791C72.4151 30.5418 72.8079 29.239 72.8079 27.8949V14.8057H70.0991V16.067C69.1066 15.0124 67.7625 14.3714 66.1082 14.3714ZM62.717 21.0298C62.717 18.7759 64.4333 17.0182 66.4184 17.0182C68.4035 17.0182 70.0991 18.7966 70.0991 21.0298C70.0991 23.2837 68.3828 25.0207 66.4184 25.0207C64.4333 25.0207 62.717 23.263 62.717 21.0298ZM82.5681 17.0182C80.9552 17.0389 79.6524 18.3623 79.6731 19.9752V28.9082H76.9643V14.7643H79.6731V16.067C80.5002 14.9711 81.7823 14.3507 83.1677 14.3714C85.0701 14.3714 86.5383 15.3019 87.3654 16.7494C88.3166 15.2813 89.9295 14.3921 91.6665 14.3714C94.7475 14.3714 96.6706 16.8528 96.6706 19.9338V28.9082H93.9824V19.9752C93.9824 18.3623 92.7004 17.0389 91.0875 17.0182C89.4746 17.0389 88.1718 18.3623 88.1925 19.9752V28.9082H85.463V19.9752C85.463 18.3623 84.181 17.0389 82.5681 17.0182ZM111.104 16.3772C109.863 15.0745 108.126 14.3507 106.327 14.3714C102.295 14.3714 99.4415 17.7833 99.4415 21.8362C99.4415 25.9098 102.295 29.3011 106.327 29.3011C108.126 29.3011 109.843 28.5773 111.104 27.2953V28.9082H113.813V14.7643H111.104V16.3772ZM102.15 21.8362C102.15 19.1481 104.218 16.9975 106.637 16.9975C109.036 17.0182 111.104 19.1481 111.104 21.8362C111.104 24.5244 109.036 26.6543 106.617 26.6543C104.239 26.6749 102.15 24.5451 102.15 21.8362Z" fill="white"/>
<path d="M13.9166 20.9056C13.9166 17.0594 17.039 13.937 20.8851 13.937C24.7313 13.937 27.8537 17.0594 27.8537 20.9056C27.8537 24.7517 24.7313 27.8741 20.8851 27.8741C17.039 27.8741 13.9166 24.7517 13.9166 20.9056Z" fill="white"/>
<path d="M6.10352e-05 34.8221C6.10352e-05 30.9759 3.12247 27.8535 6.96861 27.8535H13.9372V34.8221C13.9372 38.6682 10.8148 41.7906 6.96861 41.7906C3.12247 41.7906 6.10352e-05 38.6682 6.10352e-05 34.8221Z" fill="white"/>
<path d="M13.9166 0.0206794V13.9371H20.8851C24.7313 13.9371 27.8537 10.8147 27.8537 6.96855C27.8537 3.12241 24.7313 0 20.8851 0H13.9166V0.0206794Z" fill="white"/>
<path d="M6.10352e-05 6.98911C6.10352e-05 10.8353 3.12247 13.9577 6.96861 13.9577H13.9372V0.0412398H6.96861C3.12247 0.0205616 6.10352e-05 3.14297 6.10352e-05 6.98911Z" fill="white"/>
<path d="M6.10352e-05 20.9056C6.10352e-05 24.7518 3.12247 27.8742 6.96861 27.8742H13.9372V13.9577H6.96861C3.12247 13.9371 6.10352e-05 17.0595 6.10352e-05 20.9056Z" fill="white"/>
</svg>
